<svg width="51" height="37" viewBox="0 0 51 37" fill="none" xmlns="http://www.w3.org/2000/svg">
<path d="M5.632 36.16L3.328 33.04C4.96 32.112 6.064 31.248 6.64 30.448C7.216 29.648 7.504 28.816 7.504 27.952C7.504 27.024 7.264 26.144 6.784 25.312C6.304 24.448 5.712 23.584 5.008 22.72C4.304 21.856 3.584 20.944 2.848 19.984C2.144 18.992 1.552 17.92 1.072 16.768C0.592 15.584 0.352 14.288 0.352 12.88C0.352 10.224 1.024 7.904 2.368 5.92C3.744 3.904 5.472 2.064 7.552 0.399998L16.336 6.256C14.608 7.344 13.184 8.544 12.064 9.856C10.944 11.168 10.384 12.608 10.384 14.176C10.384 15.232 10.624 16.224 11.104 17.152C11.616 18.08 12.176 18.992 12.784 19.888C13.424 20.752 13.984 21.632 14.464 22.528C14.976 23.424 15.232 24.384 15.232 25.408C15.232 27.936 14.352 30.08 12.592 31.84C10.864 33.568 8.544 35.008 5.632 36.16ZM26.1119 34.672L23.3759 2.8L34.7999 2.08L33.2639 16.576L44.3999 2.08L48.6719 5.344L38.5439 15.952L50.3999 33.952L40.2239 34.672L33.7439 20.992L32.6879 22.096L31.3919 34.192L26.1119 34.672Z" fill="#0973BE"/>
</svg>
